<svg id="graphic_element" data-name="graphic element" xmlns="http://www.w3.org/2000/svg" viewBox="0 0 1200 1200"><path d="M943,448.12c-28.38,79.72-94,146-174.89,172.1q-3.5,1.13-7,2.14a3.71,3.71,0,0,0-1.21,6.53,258.33,258.33,0,0,1,100,175.83,3.75,3.75,0,0,0,3.45,3.31h0l2.73.19c92.38,5.39,184.28-41.84,234.56-119.35,20.77-32,40.57-71.86,31.76-110.45a393.2,393.2,0,0,0-53.83-126.82A399.57,399.57,0,0,0,964,336.4l-5.77,3.37A268,268,0,0,1,943,448.12Z" style="fill:#e7ad4a"/><path d="M600.07,575.09A256.68,256.68,0,0,1,732.58,611.8a3.7,3.7,0,0,0,2.72.44l.72-.16,3.54-.79a260.86,260.86,0,0,0,152-101.63,264.53,264.53,0,0,0,46.18-111.47A257.65,257.65,0,0,0,939,325.56c-.11-.87-.22-1.75-.34-2.63-.05-.33-.08-.67-.14-1-.39-2.19-13.37-7.31-15.58-8.45q-8.33-4.28-16.84-8.15-17.46-7.94-35.65-14.15a396.68,396.68,0,0,0-128-21.14H691.24a3.74,3.74,0,0,0-3.65,4.48,278.52,278.52,0,0,1,4.18,28.58,274,274,0,0,1-44.4,176.18,278.13,278.13,0,0,1-95.74,88.83,3.73,3.73,0,0,0,1.8,7Z" style="fill:#e7ad4a"/><path d="M474.29,564.76c51-4.73,98.88-33.3,134.78-80.44,35.28-46.34,55.58-105.46,57.16-166.47.07-2.42.1-4.89.1-7.34V273.57a6.74,6.74,0,0,0-6.58-6.88h-608c-5.3,0-8.43,6.19-5.44,10.76C74.67,320.68,128.42,394.55,200.47,457,292.52,536.82,384.65,573.06,474.29,564.76ZM512.42,331c14.84,0,27,12.14,28.11,27.53q.09,1.15.09,2.31c0,16.47-12.62,29.83-28.2,29.83-11.89,0-22.06-7.78-26.2-18.79a30.78,30.78,0,0,1-2-11C484.21,344.37,496.84,331,512.42,331Z" style="fill:#e7ad4a"/><path d="M1144,641.12l-.22.61c-.2.59-.42,1.19-.63,1.78-.42,1.19-.85,2.38-1.29,3.56l-.73,1.95-1.35,3.47c-.24.61-.48,1.22-.73,1.83-.54,1.35-1.1,2.7-1.67,4l-.48,1.16a277.38,277.38,0,0,1-126.71,136.29A273.39,273.39,0,0,1,875.05,826.4l-3.51-.14-2.55-.13-.85,0-4,3.8c.08,2.67.13,5.35.13,8v6.75c3,120.31-111.86,198.5-209.62,236.41a3.72,3.72,0,0,0,1.35,7.18h93.37a393.15,393.15,0,0,0,279.84-115.91c74.75-74.76,115.92-174.14,115.92-279.85V671.28Q1145.17,656.19,1144,641.12Z" style="fill:#e7ad4a"/><path d="M52.05,259.13a6.85,6.85,0,0,0,6.81-6.2c0-.23.07-.45.07-.68v-8.17a76.93,76.93,0,0,1,76.84-76.84H391.4a6.88,6.88,0,0,0,0-13.76H135.77a90.7,90.7,0,0,0-90.6,90.6v8.17a6.88,6.88,0,0,0,6.88,6.88Z" style="fill:#564c44"/><path d="M447.93,916c-20.21-1.4-37.73,7.41-52.06,26.21q-1.22,1.59-2.37,3.15c-21.54,29.22-24.59,66.1-8.15,98.65a95.08,95.08,0,0,0,85.24,52.53H612.82a6.88,6.88,0,0,0,6-10.26C615,1079.54,525.08,921.35,447.93,916Z" style="fill:#564c44"/><path d="M628.65,803.65A272.4,272.4,0,0,0,768.27,758a6.88,6.88,0,1,0-7.64-11.44,258.72,258.72,0,0,1-132.57,43.38,6.88,6.88,0,0,0,.29,13.75Z" style="fill:#e7ad4a"/><path d="M731.44,678.18a6.88,6.88,0,0,0-9.54-1.91,258.76,258.76,0,0,1-132.58,43.38,6.88,6.88,0,0,0,.29,13.76h.3a272.55,272.55,0,0,0,139.63-45.68A6.88,6.88,0,0,0,731.44,678.18Z" style="fill:#e7ad4a"/><path d="M796.78,816.78A258.76,258.76,0,0,1,664.2,860.16a6.88,6.88,0,0,0,.29,13.75h.3a272.55,272.55,0,0,0,139.63-45.68,6.88,6.88,0,0,0-7.64-11.45Z" style="fill:#e7ad4a"/><circle cx="515.92" cy="366.58" r="35.16" style="fill:#564c44"/></svg>